<svg fill="none" xmlns="http://www.w3.org/2000/svg" viewBox="164.93 80 300.12 30">
  <rect x="164.953" y="94.5" width="100" height="1" fill="#0025E4"/>
  <path fill-rule="evenodd" clip-rule="evenodd" d="M294.953 80H335.047V110H294.953V80Z" fill="#0026EB"/>
  <path fill-rule="evenodd" clip-rule="evenodd" d="M302.599 96.3821C302.599 96.8994 302.413 97.307 302.041 97.6048C301.669 97.9027 301.152 98.0516 300.489 98.0516C299.878 98.0516 299.338 97.9367 298.868 97.7067V96.578C299.254 96.7505 299.581 96.872 299.849 96.9425C300.116 97.013 300.361 97.0483 300.583 97.0483C300.849 97.0483 301.053 96.9974 301.196 96.8955C301.338 96.7936 301.409 96.642 301.409 96.4408C301.409 96.3285 301.378 96.2286 301.315 96.141C301.252 96.0535 301.16 95.9692 301.039 95.8882C300.918 95.8072 300.67 95.6779 300.297 95.5002C299.947 95.3356 299.685 95.1776 299.51 95.026C299.335 94.8745 299.196 94.6981 299.091 94.4969C298.987 94.2957 298.935 94.0606 298.935 93.7915C298.935 93.2846 299.106 92.8862 299.449 92.5961C299.793 92.3061 300.267 92.1611 300.873 92.1611C301.17 92.1611 301.454 92.1964 301.724 92.2669C301.994 92.3375 302.277 92.4368 302.572 92.5648L302.18 93.5093C301.875 93.3839 301.622 93.2964 301.423 93.2467C301.223 93.1971 301.027 93.1722 300.833 93.1722C300.604 93.1722 300.428 93.2258 300.305 93.3329C300.182 93.4401 300.121 93.5798 300.121 93.7523C300.121 93.8594 300.146 93.9528 300.195 94.0325C300.245 94.1122 300.324 94.1893 300.432 94.2637C300.54 94.3382 300.797 94.4721 301.201 94.6655C301.736 94.9215 302.103 95.1782 302.302 95.4356C302.5 95.6929 302.599 96.0084 302.599 96.3821ZM307.583 97.9732H306.389V95.414C306.389 94.7817 306.154 94.4656 305.684 94.4656C305.35 94.4656 305.109 94.5792 304.96 94.8065C304.811 95.0339 304.737 95.4023 304.737 95.9118V97.9732H303.543V91.875H304.737V93.1174C304.737 93.2141 304.727 93.4414 304.709 93.7993L304.682 94.152H304.744C305.011 93.7235 305.433 93.5093 306.013 93.5093C306.527 93.5093 306.917 93.6478 307.183 93.9247C307.45 94.2017 307.583 94.5988 307.583 95.1162V97.9732ZM310.439 94.3597C310.186 94.3597 309.987 94.4401 309.844 94.6008C309.7 94.7615 309.618 94.9894 309.597 95.2847H311.273C311.267 94.9894 311.19 94.7615 311.042 94.6008C310.893 94.4401 310.692 94.3597 310.439 94.3597ZM310.607 98.0516C309.902 98.0516 309.352 97.857 308.955 97.4677C308.558 97.0784 308.36 96.5271 308.36 95.8138C308.36 95.0796 308.543 94.512 308.91 94.1109C309.277 93.7098 309.784 93.5093 310.431 93.5093C311.05 93.5093 311.531 93.6857 311.876 94.0384C312.22 94.3911 312.392 94.8784 312.392 95.5002V96.0803H309.57C309.583 96.42 309.683 96.6851 309.871 96.8759C310.059 97.0666 310.323 97.162 310.662 97.162C310.926 97.162 311.175 97.1345 311.41 97.0797C311.645 97.0248 311.89 96.9373 312.146 96.8171V97.742C311.937 97.8465 311.714 97.9243 311.476 97.9752C311.239 98.0262 310.949 98.0516 310.607 98.0516ZM314.395 97.9732H313.201V91.875H314.395V97.9732ZM317.474 97.0993C317.682 97.0993 317.933 97.0535 318.225 96.9621V97.8517C317.928 97.985 317.562 98.0516 317.129 98.0516C316.652 98.0516 316.304 97.9308 316.086 97.6891C315.868 97.4474 315.759 97.0849 315.759 96.6015V94.4891H315.187V93.9835L315.845 93.5838L316.19 92.6588H316.953V93.5916H318.178V94.4891H316.953V96.6015C316.953 96.7714 317.001 96.8968 317.096 96.9778C317.191 97.0588 317.317 97.0993 317.474 97.0993ZM320.938 94.3597C320.685 94.3597 320.487 94.4401 320.343 94.6008C320.2 94.7615 320.118 94.9894 320.097 95.2847H321.772C321.767 94.9894 321.69 94.7615 321.541 94.6008C321.393 94.4401 321.192 94.3597 320.938 94.3597ZM321.107 98.0516C320.402 98.0516 319.851 97.857 319.455 97.4677C319.058 97.0784 318.86 96.5271 318.86 95.8138C318.86 95.0796 319.043 94.512 319.41 94.1109C319.776 93.7098 320.283 93.5093 320.931 93.5093C321.549 93.5093 322.031 93.6857 322.375 94.0384C322.72 94.3911 322.892 94.8784 322.892 95.5002V96.0803H320.069C320.082 96.42 320.183 96.6851 320.371 96.8759C320.559 97.0666 320.822 97.162 321.162 97.162C321.425 97.162 321.674 97.1345 321.909 97.0797C322.144 97.0248 322.39 96.9373 322.645 96.8171V97.742C322.437 97.8465 322.213 97.9243 321.976 97.9752C321.738 98.0262 321.449 98.0516 321.107 98.0516ZM326.136 93.5093C326.298 93.5093 326.433 93.5211 326.54 93.5446L326.45 94.6655C326.353 94.6393 326.236 94.6263 326.097 94.6263C325.716 94.6263 325.419 94.7242 325.207 94.9202C324.994 95.1162 324.887 95.3905 324.887 95.7432V97.9732H323.693V93.5916H324.598L324.774 94.3284H324.833C324.968 94.0828 325.152 93.8849 325.383 93.7346C325.614 93.5844 325.865 93.5093 326.136 93.5093Z" fill="white"/>
  <path fill-rule="evenodd" clip-rule="evenodd" d="M316.076 105.977H314.883V103.418C314.883 102.785 314.648 102.469 314.179 102.469C313.845 102.469 313.604 102.583 313.455 102.81C313.307 103.038 313.233 103.406 313.233 103.915V105.977H312.04V99.8787H313.233V101.121C313.233 101.218 313.223 101.445 313.205 101.803L313.178 102.156H313.24C313.506 101.727 313.929 101.513 314.507 101.513C315.021 101.513 315.411 101.651 315.677 101.928C315.943 102.205 316.076 102.602 316.076 103.12V105.977ZM309.745 106.055C308.384 106.055 307.704 105.307 307.704 103.81C307.704 103.065 307.889 102.496 308.259 102.103C308.629 101.71 309.16 101.513 309.851 101.513C310.356 101.513 310.81 101.612 311.212 101.811L310.86 102.736C310.672 102.66 310.497 102.598 310.336 102.55C310.174 102.501 310.012 102.477 309.851 102.477C309.23 102.477 308.92 102.919 308.92 103.802C308.92 104.659 309.23 105.087 309.851 105.087C310.08 105.087 310.293 105.057 310.488 104.995C310.684 104.934 310.879 104.838 311.075 104.707V105.73C310.882 105.853 310.687 105.938 310.49 105.985C310.293 106.032 310.045 106.055 309.745 106.055ZM303.566 105.471C303.962 105.861 304.512 106.055 305.216 106.055C305.558 106.055 305.847 106.03 306.085 105.979C306.322 105.928 306.545 105.85 306.753 105.746V104.821C306.498 104.941 306.253 105.028 306.018 105.083C305.783 105.138 305.534 105.166 305.271 105.166C304.932 105.166 304.669 105.07 304.481 104.88C304.293 104.689 304.193 104.424 304.18 104.084H307V103.504C307 102.882 306.828 102.395 306.483 102.042C306.139 101.689 305.658 101.513 305.04 101.513C304.394 101.513 303.887 101.713 303.521 102.115C303.155 102.516 302.972 103.083 302.972 103.817C302.972 104.531 303.17 105.082 303.566 105.471ZM305.048 102.363C304.795 102.363 304.597 102.444 304.454 102.604C304.31 102.765 304.228 102.993 304.207 103.288H305.881C305.876 102.993 305.799 102.765 305.65 102.604C305.502 102.444 305.301 102.363 305.048 102.363ZM300.421 105.977H301.633V101.258H303.186V100.247H298.868V101.258H300.421V105.977Z" fill="white" />
  <rect x="365.047" y="94.5" width="100" height="1" fill="#0025E4"/>
</svg>
