<svg width="98" height="50" viewBox="0 0 98 50" fill="none" xmlns="http://www.w3.org/2000/svg">
<path fill-rule="evenodd" clip-rule="evenodd" d="M13.2134 15.8919C13.2134 17.7161 12.5548 19.1532 11.2376 20.2035C9.92042 21.2537 8.08794 21.7789 5.74012 21.7789C3.57717 21.7789 1.66381 21.3735 0 20.5628V16.5829C1.36802 17.1909 2.52574 17.6193 3.47319 17.8681C4.42064 18.1168 5.28719 18.2412 6.07288 18.2412C7.01571 18.2412 7.73899 18.0615 8.24276 17.7022C8.74652 17.3429 8.9984 16.8086 8.9984 16.0992C8.9984 15.7031 8.88748 15.3507 8.66564 15.0421C8.4438 14.7334 8.11798 14.4363 7.68816 14.1507C7.25834 13.8651 6.38254 13.4091 5.06074 12.7826C3.82212 12.2022 2.89317 11.6449 2.27386 11.1105C1.65456 10.5762 1.16004 9.95435 0.790307 9.24497C0.420571 8.53559 0.235705 7.70645 0.235705 6.75754C0.235705 4.97027 0.84345 3.56534 2.05896 2.54273C3.27446 1.52011 4.95443 1.00881 7.09889 1.00881C8.15264 1.00881 9.15785 1.13318 10.1145 1.38193C11.0712 1.63067 12.0718 1.98075 13.1163 2.43217L11.7298 5.76257C10.6483 5.32036 9.75405 5.01173 9.04693 4.83669C8.33981 4.66165 7.64426 4.57413 6.96024 4.57413C6.14683 4.57413 5.52291 4.76299 5.08847 5.14071C4.65403 5.51843 4.43681 6.01131 4.43681 6.61935C4.43681 6.99707 4.52462 7.32642 4.70024 7.60741C4.87587 7.8884 5.15548 8.16017 5.53908 8.42274C5.92268 8.6853 6.83083 9.15745 8.26356 9.83919C10.1585 10.742 11.4571 11.6472 12.1596 12.5546C12.8621 13.4621 13.2134 14.5745 13.2134 15.8919ZM30.8635 21.5024H26.6346V12.4786C26.6346 10.2491 25.8027 9.13439 24.1389 9.13439C22.9558 9.13439 22.1008 9.53514 21.5739 10.3367C21.047 11.1382 20.7836 12.4371 20.7836 14.2336V21.5024H16.5547V0H20.7836V4.38064C20.7836 4.72151 20.7512 5.52301 20.6865 6.78516L20.5895 8.02887H20.8113C21.7541 6.51798 23.2515 5.76255 25.3036 5.76255C27.1245 5.76255 28.5064 6.25081 29.4492 7.22737C30.3921 8.20392 30.8635 9.60423 30.8635 11.4284V21.5024ZM40.9784 8.76131C40.0818 8.76131 39.3793 9.0446 38.8709 9.61119C38.3625 10.1778 38.0713 10.9816 37.9974 12.0226H43.9316C43.9131 10.9816 43.6405 10.1778 43.1136 9.61119C42.5867 9.0446 41.875 8.76131 40.9784 8.76131ZM41.5746 21.7788C39.0788 21.7788 37.1285 21.0925 35.7235 19.7198C34.3185 18.3471 33.616 16.4032 33.616 13.8882C33.616 11.2994 34.2654 9.29794 35.5641 7.88378C36.8628 6.46963 38.6583 5.76256 40.9506 5.76256C43.1413 5.76256 44.8467 6.38441 46.0668 7.62813C47.287 8.87185 47.897 10.59 47.897 12.7826V14.8279H37.9003C37.9465 16.0255 38.3024 16.9606 38.9679 17.6331C39.6335 18.3057 40.567 18.6419 41.7687 18.6419C42.7023 18.6419 43.585 18.5452 44.4169 18.3517C45.2488 18.1583 46.1177 17.8496 47.0235 17.4258V20.6871C46.284 21.0556 45.4938 21.3297 44.6526 21.5094C43.8115 21.689 42.7854 21.7788 41.5746 21.7788ZM54.9907 21.5024H50.7619V0H54.9907V21.5024ZM65.8925 18.4208C66.632 18.4208 67.5193 18.2596 68.5546 17.9371V21.074C67.5008 21.5439 66.2068 21.7788 64.6724 21.7788C62.9808 21.7788 61.7492 21.3527 60.9774 20.5005C60.2055 19.6484 59.8196 18.3701 59.8196 16.6658V9.21729H57.7953V7.43463L60.1247 6.02508L61.3448 2.76379H64.0485V6.05272H68.3882V9.21729H64.0485V16.6658C64.0485 17.2646 64.2171 17.7068 64.5545 17.9924C64.8919 18.278 65.3379 18.4208 65.8925 18.4208ZM78.163 8.76131C77.2664 8.76131 76.5639 9.0446 76.0555 9.61119C75.5471 10.1778 75.256 10.9816 75.182 12.0226H81.1162C81.0978 10.9816 80.8251 10.1778 80.2982 9.61119C79.7713 9.0446 79.0596 8.76131 78.163 8.76131ZM78.7592 21.7788C76.2635 21.7788 74.3132 21.0925 72.9082 19.7198C71.5032 18.3471 70.8007 16.4032 70.8007 13.8882C70.8007 11.2994 71.45 9.29794 72.7487 7.88378C74.0474 6.46963 75.8429 5.76256 78.1353 5.76256C80.326 5.76256 82.0314 6.38441 83.2515 7.62813C84.4716 8.87185 85.0817 10.59 85.0817 12.7826V14.8279H75.085C75.1312 16.0255 75.4871 16.9606 76.1526 17.6331C76.8181 18.3057 77.7517 18.6419 78.9533 18.6419C79.8869 18.6419 80.7697 18.5452 81.6016 18.3517C82.4335 18.1583 83.3023 17.8496 84.2082 17.4258V20.6871C83.4687 21.0556 82.6784 21.3297 81.8373 21.5094C80.9961 21.689 79.9701 21.7788 78.7592 21.7788ZM96.572 5.76256C97.1451 5.76256 97.6211 5.80402 98.0001 5.88693L97.6812 9.83918C97.3392 9.74705 96.9232 9.70099 96.4333 9.70099C95.0838 9.70099 94.0324 10.0465 93.2791 10.7374C92.5257 11.4284 92.1491 12.3957 92.1491 13.6394V21.5025H87.9202V6.05276H91.123L91.747 8.65074H91.9549C92.4356 7.78474 93.0849 7.08689 93.903 6.55715C94.721 6.02742 95.6107 5.76256 96.572 5.76256Z" fill="#0026EB"/>
<path fill-rule="evenodd" clip-rule="evenodd" d="M60.9414 49.7236H56.7171V40.6998C56.7171 38.4703 55.8861 37.3556 54.224 37.3556C53.0421 37.3556 52.188 37.7563 51.6617 38.5578C51.1354 39.3594 50.8722 40.6583 50.8722 42.4548V49.7236H46.6479V28.2212H50.8722V32.6018C50.8722 32.9427 50.8399 33.7442 50.7753 35.0063L50.6783 36.2501H50.8999C51.8418 34.7392 53.3376 33.9837 55.3874 33.9837C57.2064 33.9837 58.5868 34.472 59.5287 35.4486C60.4705 36.4251 60.9414 37.8254 60.9414 39.6495V49.7236ZM38.5213 50C33.7013 50 31.2914 47.3606 31.2914 42.0817C31.2914 39.4561 31.947 37.45 33.2581 36.0635C34.5693 34.677 36.4483 33.9837 38.8952 33.9837C40.6865 33.9837 42.2932 34.3338 43.7151 35.034L42.4686 38.2953C41.8038 38.0281 41.1851 37.8093 40.6127 37.6389C40.0402 37.4684 39.4677 37.3832 38.8952 37.3832C36.6976 37.3832 35.5988 38.9402 35.5988 42.0541C35.5988 45.0758 36.6976 46.5867 38.8952 46.5867C39.7078 46.5867 40.4603 46.4785 41.1528 46.262C41.8453 46.0455 42.5378 45.7069 43.2304 45.2463V48.853C42.5471 49.286 41.8569 49.5855 41.1597 49.7513C40.4626 49.9171 39.5831 50 38.5213 50ZM16.6379 47.941C18.0414 49.3137 19.9896 50 22.4827 50C23.6923 50 24.7172 49.9102 25.5574 49.7306C26.3977 49.5509 27.1872 49.2768 27.9258 48.9083V45.647C27.021 46.0708 26.153 46.3794 25.322 46.5729C24.491 46.7664 23.6092 46.8631 22.6766 46.8631C21.4762 46.8631 20.5436 46.5268 19.8788 45.8543C19.214 45.1818 18.8585 44.2467 18.8124 43.049H28.7984V41.0038C28.7984 38.8112 28.189 37.093 26.9702 35.8493C25.7513 34.6056 24.0478 33.9837 21.8594 33.9837C19.5695 33.9837 17.7759 34.6908 16.4786 36.105C15.1813 37.5191 14.5326 39.5206 14.5326 42.1093C14.5326 44.6244 15.2343 46.5683 16.6379 47.941ZM21.8872 36.9825C20.9915 36.9825 20.2898 37.2658 19.782 37.8324C19.2741 38.399 18.9833 39.2028 18.9094 40.2438H24.8373C24.8188 39.2028 24.5465 38.399 24.0201 37.8324C23.4938 37.2658 22.7829 36.9825 21.8872 36.9825ZM5.49857 49.7236H9.79216V33.0855H15.2907V29.5202H0V33.0855H5.49857V49.7236Z" fill="#0026EB"/>
</svg>
