<svg xmlns="http://www.w3.org/2000/svg" height="99.84" width="275.547"><path d="M0 94.949l3.6-5.123c2.169 2.26 5.538 4.199 9.783 4.199 3.646 0 5.353-1.616 5.353-3.414 0-5.353-17.721-1.615-17.721-13.198 0-5.125 4.43-9.369 11.676-9.369 4.892 0 8.953 1.476 11.999 4.292l-3.646 4.891c-2.492-2.308-5.815-3.37-8.953-3.37-2.77 0-4.338 1.202-4.338 3.048 0 4.845 17.675 1.567 17.675 13.059 0 5.63-4.061 9.876-12.322 9.876-5.953 0-10.198-1.984-13.106-4.891M32.118 99.286V68.505h21.783v5.769H38.67v6.46h14.907v5.769H38.672v12.783h-6.554M75.543 99.286V68.505H95.71v3.415H79.373v9.922h16.014v3.416H79.373v14.028h-3.83M113.199 72.428l-6.506 16.614h13.06zm10.383 26.858l-2.722-6.877h-15.321l-2.723 6.877H98.43l12.415-30.781h4.753l12.368 30.781h-4.385M160.593 99.286V73.398l-10.43 25.888h-1.57l-10.476-25.888v25.888h-3.829V68.505h5.493l9.598 23.72 9.553-23.72h5.49v30.781h-3.829M173.927 99.286V68.505h3.832v30.781h-3.832M186.759 99.286V68.505h3.829V95.87h14.305v3.415H186.76M212.321 99.286V68.505h3.831v30.781h-3.83M225.659 99.286V68.505h20.168v3.415H229.49v9.922h16.012v3.416H229.49V95.87h16.336v3.415h-20.168M252.377 94.949l2.307-2.954c1.985 2.306 5.308 4.43 9.645 4.43 5.491 0 7.246-2.954 7.246-5.354 0-7.937-18.23-3.507-18.23-14.49 0-5.075 4.523-8.584 10.616-8.584 4.66 0 8.307 1.615 10.89 4.34l-2.307 2.813c-2.308-2.585-5.539-3.692-8.908-3.692-3.644 0-6.321 1.986-6.321 4.893 0 6.921 18.229 2.954 18.229 14.443 0 4.431-3.047 9.046-11.352 9.046-5.308 0-9.277-2.031-11.815-4.891M244.467 49.138c-.666-.07-1.33-.135-2.028-.263l-.895-.145v3.884h-8.601v-6.066c-.467-.164-.938-.324-1.396-.49l-1.303-.469c-.08-.032-.145-.063-.223-.094v7.119h-8.602V41.138a72.556 72.556 0 01-2.922-1.887v13.363h-8.602V32.01a69.856 69.856 0 01-2.922-3.164v23.768h-7.962V16.507a34.723 34.723 0 01-.711-1.522l-.861-2.268c-.123-.307-.219-.61-.331-.914h-.573l-.091.158c-.37.651-.765 1.348-1.224 2.045-.12.188-.28.406-.41.601v38.007h-7.962V24.372c-.028.029-.05.055-.079.084a101.48 101.48 0 01-2.842 2.607v25.551h-8.603V33.491a63.267 63.267 0 01-2.921 1.707v17.416H163.8V39.222l-.125.052c-.851.313-1.578.553-2.306.794l-.49.163v12.383h-8.603v-10.15c-.96.183-1.933.349-2.921.492v9.658h-8.602v-8.923c-.449.015-.878.044-1.336.052l-.496.006-1.089-.042v8.907h-8.603V43.01c-.223-.033-.437-.042-.661-.083l-2.26-.41v10.097h-8.603V40.32l-2.475-.821c-.161-.062-.295-.117-.446-.177v13.292h-8.602V35.356c-.053-.03-.111-.055-.164-.085-.517-.31-.977-.579-1.435-.846-.437-.255-.88-.522-1.323-.788v18.977h-8.602V27.285a99.127 99.127 0 01-2.732-2.48c-.067-.067-.123-.129-.19-.196v28.005h-7.962V14.947c-.146-.215-.318-.448-.455-.66a32.497 32.497 0 01-1.215-2.01l-.275-.474h-.291c-.068.182-.12.353-.192.537l-.783 2.103a31.929 31.929 0 01-.801 1.757l-.19.392v36.022H71.61V28.848a61.73 61.73 0 01-2.92 3.16v20.606h-8.603V39.242a64.519 64.519 0 01-2.921 1.883v11.489h-8.602v-7.131l-1.25.458c-.548.202-1.111.398-1.672.596v6.077H37.04v-3.909l-.666.112c-.776.144-1.525.226-2.255.298v3.499H23.02v4.201H255.35v-4.201h-10.882v-3.476" fill="#505155"/><path d="M82.903 5.512l-1.107-1.1.638 1.419c.455.903 1.003 2.325 2.01 3.94.49.816.984 1.77 1.627 2.73.63.97 1.368 1.982 2.144 3.085l2.682 3.356c1.023 1.114 2.104 2.296 3.286 3.48 2.423 2.294 5.168 4.722 8.397 6.86 1.565 1.153 3.322 2.089 5.074 3.144.886.51 1.823.944 2.756 1.41.933.47 1.882.933 2.873 1.322.983.407 1.97.835 2.98 1.226l3.106 1.03c2.085.697 4.258 1.211 6.451 1.68l3.328.604c1.118.2 2.315.28 3.474.409l1.757.173 1.608.07 1.597.063.799.031.398.016.2.007h.266l.106-.004c4.563-.09 9.127-.509 13.526-1.444 2.184-.514 4.365-.989 6.438-1.727 1.042-.352 2.082-.68 3.099-1.048.999-.416 1.99-.83 2.975-1.238 3.896-1.714 7.501-3.707 10.666-5.939 3.215-2.156 5.948-4.596 8.36-6.9a114.67 114.67 0 003.264-3.5l2.668-3.366c.767-1.11 1.502-2.122 2.127-3.096.636-.967 1.137-1.931 1.625-2.751 1.01-1.634 1.523-3.025 1.978-3.934l.633-1.423-1.097 1.106c-.703.72-1.726 1.835-3.08 3.093-1.291 1.31-3.023 2.747-4.918 4.439l-3.181 2.491a6738.77 6738.77 0 00-3.63 2.558c-2.593 1.667-5.394 3.435-8.533 4.943-3.084 1.598-6.477 2.956-10.02 4.159-3.541 1.228-7.317 2.05-11.15 2.764a79.957 79.957 0 01-11.776.971c-1.723-.065-4.327-.017-6.024-.25-.95-.104-1.875-.14-2.846-.265-.973-.136-1.943-.27-2.91-.406-3.833-.696-7.624-1.47-11.162-2.704-3.556-1.166-6.945-2.527-10.041-4.1-3.148-1.488-5.957-3.242-8.557-4.898-1.29-.841-2.462-1.742-3.645-2.533l-3.195-2.473c-1.904-1.675-3.647-3.109-4.957-4.423-1.37-1.264-2.377-2.336-3.087-3.057" fill="#4ea8e2"/><path d="M38.566 45.123l2.875-.73c1.998-.462 3.994-1.274 6.102-2.03 1.032-.426 2.054-.924 3.102-1.405 1.062-.456 2.085-1.016 3.098-1.614 2.087-1.1 4.04-2.485 6.009-3.846 1.865-1.495 3.789-2.93 5.436-4.618 1.742-1.584 3.25-3.349 4.698-5.046.716-.857 1.351-1.758 1.984-2.624.628-.87 1.259-1.705 1.763-2.6l1.526-2.544c.478-.827.862-1.676 1.255-2.468.375-.805.761-1.553 1.073-2.3l.807-2.165a24.854 24.854 0 001.12-3.513c.503-1.968.721-3.124.721-3.124s-.735.919-1.901 2.58c-.555.856-1.331 1.815-2.156 2.903l-1.313 1.728-1.546 1.859c-1.023 1.323-2.246 2.66-3.511 4.075-.613.722-1.292 1.42-1.996 2.123-.713.693-1.364 1.465-2.118 2.164-.762.692-1.514 1.411-2.273 2.14-.743.745-1.611 1.377-2.4 2.1-.8.715-1.628 1.406-2.494 2.058-.859.66-1.693 1.36-2.575 1.995-1.771 1.26-3.534 2.533-5.364 3.65-1.778 1.206-3.661 2.164-5.423 3.226-1.842.888-3.564 1.924-5.313 2.652l-2.515 1.18-2.41.982c-1.54.684-2.993 1.204-4.29 1.682-.648.245-1.261.452-1.822.689l-1.573.516c-1.908.629-3.017 1.068-3.017 1.068s1.155.133 3.207.225c.515.019 1.085.04 1.705.065.618-.007 1.28-.064 1.995-.1 1.431-.075 3.061-.152 4.8-.476l2.734-.457" fill="#ea1160"/><path d="M198.628 4.93s.216 1.138.74 3.118a25.478 25.478 0 001.141 3.509l.807 2.138c.317.737.704 1.485 1.083 2.285.398.786.784 1.632 1.265 2.453l1.537 2.529c.511.886 1.142 1.717 1.774 2.58.634.862 1.276 1.754 1.993 2.605 1.457 1.68 2.965 3.437 4.715 5.002 1.65 1.673 3.578 3.091 5.446 4.57 1.97 1.348 3.927 2.714 6.012 3.8 1.014.592 2.039 1.14 3.098 1.592 1.045.476 2.069.964 3.1 1.384 2.105.744 4.1 1.542 6.092 1.993l2.869.715 2.728.444c1.725.315 3.375.388 4.81.46.717.035 1.38.087 1.997.092l1.674-.074a55.514 55.514 0 003.188-.234s-1.09-.432-3.018-1.054l-1.595-.512c-.56-.233-1.168-.439-1.81-.679-1.289-.47-2.715-.978-4.26-1.654-.773-.31-1.577-.634-2.409-.97l-2.512-1.166c-1.746-.72-3.468-1.745-5.308-2.623-1.758-1.056-3.645-1.995-5.42-3.194-1.83-1.105-3.592-2.368-5.364-3.617-1.713-1.322-3.477-2.591-5.07-4.015-.792-.716-1.656-1.346-2.404-2.082l-2.278-2.121c-.757-.69-1.408-1.459-2.122-2.145-.706-.696-1.39-1.386-2.004-2.103-1.27-1.402-2.498-2.726-3.527-4.039-.543-.642-1.061-1.258-1.555-1.844l-1.332-1.729c-.838-1.093-1.614-2.035-2.166-2.864-1.167-1.627-1.915-2.55-1.915-2.55" fill="#67c531"/><path d="M44.397 27.344a9.298 9.298 0 100-18.596 9.298 9.298 0 000 18.596" fill="#ea1160"/><path d="M231.995 27.344a9.298 9.298 0 009.297-9.298 9.298 9.298 0 10-9.297 9.298" fill="#67c531"/><path d="M151.05 12.03c0-6.645-5.389-12.033-12.034-12.033-6.645 0-12.032 5.388-12.032 12.033s5.387 12.032 12.032 12.032c6.645 0 12.033-5.387 12.033-12.032" fill="#4ea8e2"/></svg>