<?xml version="1.0" encoding="UTF-8"?>
<svg width="107px" height="80px" viewBox="0 0 107 80" version="1.1" xmlns="http://www.w3.org/2000/svg" xmlns:xlink="http://www.w3.org/1999/xlink">
    <!-- Generator: Sketch 42 (36781) - http://www.bohemiancoding.com/sketch -->
    <title>sheltertech-logo</title>
    <desc>Created with Sketch.</desc>
    <defs></defs>
    <g id="Welcome" stroke="none" stroke-width="1" fill="none" fill-rule="evenodd">
        <g id="sheltertech" transform="translate(-60.000000, -40.000000)">
            <g id="header">
                <g id="sheltertech-logo" transform="translate(60.000000, 40.000000)">
                    <rect id="Rectangle" fill="#FFFFFF" x="0" y="0" width="107" height="80"></rect>
                    <path d="M20.4059413,43.6854761 C20.4059413,45.0650333 19.9096773,46.1519408 18.9171344,46.9462313 C17.9245916,47.7405218 16.5437587,48.1376611 14.7745946,48.1376611 C13.1447347,48.1376611 11.7029571,47.8310975 10.4492188,47.2179609 L10.4492188,44.208033 C11.4800703,44.6678854 12.3524502,44.9918675 13.0663846,45.1799889 C13.7803189,45.3681103 14.4332979,45.4621697 15.025341,45.4621697 C15.7357927,45.4621697 16.2808125,45.3263062 16.6604166,45.0545752 C17.0400208,44.7828443 17.22982,44.3787376 17.22982,43.8422432 C17.22982,43.5426424 17.1462387,43.276141 16.9790735,43.0427311 C16.8119084,42.8093211 16.5663883,42.5846239 16.2425059,42.3686326 C15.9186235,42.1526413 15.2586794,41.8077572 14.2626539,41.3339699 C13.3293154,40.8950199 12.6293219,40.4734948 12.1626526,40.0693821 C11.6959834,39.6652694 11.32335,39.1949729 11.0447415,38.6584784 C10.766133,38.1219839 10.6268308,37.4949219 10.6268308,36.7772735 C10.6268308,35.4255861 11.0847867,34.3630643 12.0007122,33.5896762 C12.9166378,32.816288 14.1825463,32.4295998 15.7984758,32.4295998 C16.5925101,32.4295998 17.3499657,32.5236591 18.0708653,32.7117805 C18.7917648,32.899902 19.5457379,33.1646615 20.332807,33.5060671 L19.2880302,36.0247915 C18.4731002,35.6903534 17.799226,35.4569469 17.2663872,35.3245652 C16.7335483,35.1921834 16.2094239,35.1259936 15.6939981,35.1259936 C15.0810594,35.1259936 14.6109145,35.2688244 14.2835495,35.5544902 C13.9561845,35.8401561 13.7925044,36.2129097 13.7925044,36.6727621 C13.7925044,36.958428 13.8586729,37.2075109 13.991012,37.4200185 C14.123351,37.632526 14.3340456,37.838063 14.6231019,38.0366357 C14.9121583,38.2352083 15.5964802,38.5922853 16.6760883,39.1078774 C18.103957,39.7906885 19.0825548,40.4752312 19.611911,41.1615261 C20.1412672,41.847821 20.4059413,42.6891292 20.4059413,43.6854761 L20.4059413,43.6854761 Z M33.7059496,47.9286384 L30.5193804,47.9286384 L30.5193804,41.1040448 C30.5193804,39.4179194 29.8925207,38.5748693 28.6387823,38.5748693 C27.747235,38.5748693 27.1029624,38.8779493 26.7059452,39.4841184 C26.3089281,40.0902874 26.1104225,41.0726846 26.1104225,42.4313395 L26.1104225,47.9286384 L22.9238533,47.9286384 L22.9238533,31.6666667 L26.1104225,31.6666667 L26.1104225,34.9796776 C26.1104225,35.2374737 26.0860446,35.8436336 26.0372881,36.7981757 L25.9641537,37.7387782 L26.131318,37.7387782 C26.8417698,36.5961147 27.9701174,36.0247915 29.5163947,36.0247915 C30.8885418,36.0247915 31.9298255,36.3940613 32.6402773,37.1326122 C33.350729,37.871163 33.7059496,38.9302011 33.7059496,40.3097583 L33.7059496,47.9286384 Z M41.8238651,38.2926886 C41.1482394,38.2926886 40.6188911,38.5069348 40.2358044,38.9354336 C39.8527177,39.3639324 39.6333167,39.9718342 39.577595,40.7591573 L44.0492396,40.7591573 C44.0353092,39.9718342 43.8298384,39.3639324 43.4328213,38.9354336 C43.0358041,38.5069348 42.4994908,38.2926886 41.8238651,38.2926886 L41.8238651,38.2926886 Z M42.2731191,48.1376611 C40.3925115,48.1376611 38.9228735,47.6185931 37.8641611,46.5804415 C36.8054487,45.5422899 36.2761004,44.0721777 36.2761004,42.170061 C36.2761004,40.2122046 36.7653993,38.6985465 37.7440118,37.6290413 C38.7226243,36.5595361 40.0755966,36.0247915 41.8029695,36.0247915 C43.4537251,36.0247915 44.7387876,36.495088 45.6581958,37.4356952 C46.577604,38.3763024 47.0373011,39.6757143 47.0373011,41.3339699 L47.0373011,42.8807384 L39.5044606,42.8807384 C39.5392867,43.7865083 39.8074434,44.4936949 40.3089388,45.0023196 C40.8104341,45.5109442 41.5139101,45.7652527 42.4193878,45.7652527 C43.1228744,45.7652527 43.7880423,45.6920954 44.4149114,45.5457788 C45.0417806,45.3994621 45.6965009,45.1660557 46.3790918,44.8455525 L46.3790918,47.3120212 C45.8218747,47.5907196 45.2263579,47.7979985 44.5925235,47.9338639 C43.9586891,48.0697294 43.185562,48.1376611 42.2731191,48.1376611 L42.2731191,48.1376611 Z M52.8149167,47.9286384 L49.6283475,47.9286384 L49.6283475,31.6666667 L52.8149167,31.6666667 L52.8149167,47.9286384 Z M61.0791009,45.5980345 C61.6363179,45.5980345 62.3049684,45.4761057 63.0850723,45.2322446 L63.0850723,47.6046531 C62.291038,47.9599936 61.3159227,48.1376611 60.1596973,48.1376611 C58.8850633,48.1376611 57.9569626,47.8154209 57.3753672,47.1709308 C56.7937719,46.5264407 56.5029786,45.5597201 56.5029786,44.2707399 L56.5029786,38.6375761 L54.9776046,38.6375761 L54.9776046,37.2893792 L56.7328295,36.2233631 L57.6522331,33.7568944 L59.6895478,33.7568944 L59.6895478,36.2442654 L62.9596991,36.2442654 L62.9596991,38.6375761 L59.6895478,38.6375761 L59.6895478,44.2707399 C59.6895478,44.7236248 59.816661,45.0580579 60.0708913,45.2740492 C60.3251216,45.4900404 60.6611881,45.5980345 61.0791009,45.5980345 L61.0791009,45.5980345 Z M70.2835842,38.2926886 C69.6079585,38.2926886 69.0786102,38.5069348 68.6955235,38.9354336 C68.3124368,39.3639324 68.0930359,39.9718342 68.0373142,40.7591573 L72.5089587,40.7591573 C72.4950283,39.9718342 72.2895576,39.3639324 71.8925404,38.9354336 C71.4955233,38.5069348 70.9592099,38.2926886 70.2835842,38.2926886 L70.2835842,38.2926886 Z M70.7328382,48.1376611 C68.8522306,48.1376611 67.3825927,47.6185931 66.3238803,46.5804415 C65.2651678,45.5422899 64.7358196,44.0721777 64.7358196,42.170061 C64.7358196,40.2122046 65.2251185,38.6985465 66.2037309,37.6290413 C67.1823434,36.5595361 68.5353158,36.0247915 70.2626887,36.0247915 C71.9134442,36.0247915 73.1985068,36.495088 74.1179149,37.4356952 C75.0373231,38.3763024 75.4970203,39.6757143 75.4970203,41.3339699 L75.4970203,42.8807384 L67.9641798,42.8807384 C67.9990058,43.7865083 68.2671625,44.4936949 68.7686579,45.0023196 C69.2701532,45.5109442 69.9736292,45.7652527 70.879107,45.7652527 C71.5825935,45.7652527 72.2477614,45.6920954 72.8746306,45.5457788 C73.5014998,45.3994621 74.15622,45.1660557 74.8388109,44.8455525 L74.8388109,47.3120212 C74.2815938,47.5907196 73.686077,47.7979985 73.0522426,47.9338639 C72.4184082,48.0697294 71.6452812,48.1376611 70.7328382,48.1376611 L70.7328382,48.1376611 Z M84.6074737,36.0247915 C85.0393169,36.0247915 85.39802,36.0561446 85.6835937,36.1188517 L85.4432951,39.1078774 C85.1855822,39.0382028 84.8721523,39.003366 84.502996,39.003366 C83.4860749,39.003366 82.6937937,39.2646418 82.1261289,39.7872014 C81.558464,40.3097609 81.2746358,41.0413333 81.2746358,41.9819405 L81.2746358,47.9286384 L78.0880667,47.9286384 L78.0880667,36.2442654 L80.501501,36.2442654 L80.9716505,38.2090794 L81.128367,38.2090794 C81.4905581,37.5541382 81.979857,37.0263609 82.5962784,36.6257319 C83.2126998,36.225103 83.8830915,36.0247915 84.6074737,36.0247915 L84.6074737,36.0247915 Z" id="ShelterTech" fill="#0026EB"></path>
                    <path d="M58.4578945,69.2718704 L55.2747106,69.2718704 L55.2747106,62.4472769 C55.2747106,60.7611514 54.6485167,59.9181013 53.3961102,59.9181013 C52.50551,59.9181013 51.8619219,60.2211813 51.4653265,60.8273504 C51.0687311,61.4335195 50.8704364,62.4159167 50.8704364,63.7745715 L50.8704364,69.2718704 L47.6872525,69.2718704 L47.6872525,53.0098987 L50.8704364,53.0098987 L50.8704364,56.3229097 C50.8704364,56.5807057 50.8460844,57.1868657 50.7973797,58.1414078 L50.724323,59.0820103 L50.8913097,59.0820103 C51.6010068,57.9393467 52.7281557,57.3680235 54.2727904,57.3680235 C55.6434797,57.3680235 56.6836573,57.7372934 57.3933543,58.4758442 C58.1030513,59.214395 58.4578945,60.2734332 58.4578945,61.6529904 L58.4578945,69.2718704 Z M41.435688,69.4808932 C37.8037091,69.4808932 35.9877469,67.4847457 35.9877469,63.4923908 C35.9877469,61.5066645 36.4817443,59.9895227 37.4697539,58.9409199 C38.4577634,57.8923171 39.8736573,57.3680235 41.717478,57.3680235 C43.0672939,57.3680235 44.2779354,57.632783 45.3494387,58.1623101 L44.4101385,60.6287788 C43.9091759,60.4267224 43.4430094,60.2612477 43.0116249,60.1323497 C42.5802405,60.0034517 42.1488625,59.9390036 41.717478,59.9390036 C40.0615183,59.9390036 39.2335509,61.1164868 39.2335509,63.4714885 C39.2335509,65.7568155 40.0615183,66.8994619 41.717478,66.8994619 C42.3297656,66.8994619 42.896819,66.8175955 43.418655,66.6538602 C43.940491,66.4901249 44.4623192,66.2340745 44.9841553,65.8857015 L44.9841553,68.6134487 C44.4692771,68.9409193 43.9491883,69.1673584 43.4238733,69.2927727 C42.8985584,69.418187 42.2358365,69.4808932 41.435688,69.4808932 Z M29.3500257,69.4808932 C27.4714159,69.4808932 26.0033392,68.9618252 24.9457515,67.9236735 C23.8881638,66.8855219 23.3593779,65.4154098 23.3593779,63.513293 C23.3593779,61.5554366 23.848157,60.0417785 24.8257298,58.9722733 C25.8033027,57.9027681 27.1548377,57.3680235 28.8803756,57.3680235 C30.5293775,57.3680235 31.8130749,57.8383201 32.7315063,58.7789272 C33.6499377,59.7195344 34.1091466,61.0189463 34.1091466,62.6772019 L34.1091466,64.2239705 L26.5843085,64.2239705 C26.6190975,65.1297403 26.8869694,65.836927 27.387932,66.3455516 C27.8888946,66.8541762 28.5916232,67.1084847 29.496139,67.1084847 C30.1988782,67.1084847 30.8633395,67.0353275 31.4895427,66.8890108 C32.115746,66.7426941 32.7697707,66.5092877 33.4516364,66.1887845 L33.4516364,68.6552532 C32.8950113,68.9339517 32.3001272,69.1412305 31.6669661,69.277096 C31.033805,69.4129615 30.2614993,69.4808932 29.3500257,69.4808932 Z M28.9012489,59.6359206 C28.226341,59.6359206 27.697555,59.8501668 27.3148753,60.2786656 C26.9321955,60.7071645 26.7130277,61.3150663 26.6573652,62.1023893 L31.1242593,62.1023893 C31.1103437,61.3150663 30.9050913,60.7071645 30.5084959,60.2786656 C30.1119005,59.8501668 29.5761569,59.6359206 28.9012489,59.6359206 Z M17.8279435,69.2718704 L14.5925762,69.2718704 L14.5925762,56.6886995 L10.4492188,56.6886995 L10.4492188,53.9923057 L21.9713009,53.9923057 L21.9713009,56.6886995 L17.8279435,56.6886995 L17.8279435,69.2718704 Z" id="Combined-Shape" fill="#0026EB"></path>
                </g>
            </g>
        </g>
    </g>
</svg>