<svg fill="none" height="747" viewBox="0 0 1320 747" width="1320" xmlns="http://www.w3.org/2000/svg"><g fill="#205493"><path d="m54.6442 721.074-54.6442 25.926h1320v-747l-54.64 8.10195h-54.65l-54.64 8.10195-58.06 12.9631-109.291 9.7224-54.644 46.9913-110.996 9.7223-51.229 21.065-56.352 17.824-54.644 27.547-52.937 38.889-58.059 29.167-49.522 40.51-59.767 17.825-56.352 85.88-51.229 12.963-56.352 34.029-54.644 123.149-54.644 59.955-54.644 108.566z" opacity=".5"/><path d="m51.0861 729.995-51.0861 17.005h1320v-653l-47.79 20.406-54.38 5.102-56.03 11.903-51.09 18.706-52.73 18.706-110.415 8.503-51.086 23.807-52.734 13.604-51.086 20.406-52.734 18.706-51.086 8.503-52.734 11.903-51.086 15.305-51.086 18.706-54.382 22.106-56.03 22.107-57.678 47.615-44.495 57.997-51.086 44.034-57.678 90.128-51.086 44.213-56.03 74.823z"/></g></svg>