<svg width="114" height="85" viewBox="0 0 114 85" fill="none" xmlns="http://www.w3.org/2000/svg">
<path fill-rule="evenodd" clip-rule="evenodd" d="M0 0H114V85H0V0Z" fill="white"/>
<path fill-rule="evenodd" clip-rule="evenodd" d="M21.7409 46.4158C21.7409 47.8816 21.2122 49.0364 20.1547 49.8804C19.0972 50.7243 17.6261 51.1463 15.7412 51.1463C14.0047 51.1463 12.4686 50.8205 11.1328 50.1691V46.971C12.2311 47.4596 13.1606 47.8039 13.9212 48.0037C14.6818 48.2036 15.3775 48.3036 16.0083 48.3036C16.7652 48.3036 17.3459 48.1592 17.7503 47.8705C18.1548 47.5818 18.357 47.1524 18.357 46.5824C18.357 46.2641 18.268 45.9809 18.0899 45.7329C17.9118 45.4849 17.6502 45.2462 17.3051 45.0167C16.96 44.7872 16.2569 44.4207 15.1957 43.9173C14.2013 43.451 13.4555 43.0031 12.9583 42.5737C12.4611 42.1443 12.0641 41.6447 11.7673 41.0746C11.4705 40.5046 11.322 39.8384 11.322 39.0759C11.322 37.6397 11.81 36.5108 12.7858 35.689C13.7617 34.8673 15.1104 34.4564 16.832 34.4564C17.678 34.4564 18.485 34.5564 19.2531 34.7563C20.0211 34.9561 20.8244 35.2375 21.663 35.6002L20.5499 38.2763C19.6816 37.921 18.9637 37.673 18.396 37.5323C17.8283 37.3917 17.2699 37.3214 16.7207 37.3214C16.0677 37.3214 15.5668 37.4731 15.218 37.7766C14.8692 38.0802 14.6948 38.4762 14.6948 38.9648C14.6948 39.2683 14.7653 39.533 14.9063 39.7588C15.0473 39.9846 15.2718 40.2029 15.5798 40.4139C15.8877 40.6249 16.6168 41.0043 17.767 41.5521C19.2883 42.2776 20.3309 43.0049 20.8949 43.7341C21.4589 44.4633 21.7409 45.3572 21.7409 46.4158ZM35.911 50.9242H32.516V43.673C32.516 41.8815 31.8481 40.9858 30.5124 40.9858C29.5625 40.9858 28.8761 41.3078 28.4531 41.9519C28.0301 42.5959 27.8186 43.6397 27.8186 45.0833V50.9242H24.4236V33.6458H27.8186V37.1659C27.8186 37.4398 27.7926 38.0838 27.7407 39.098L27.6628 40.0974H27.8409C28.5978 38.8834 29.7999 38.2763 31.4474 38.2763C32.9093 38.2763 34.0187 38.6687 34.7756 39.4534C35.5326 40.2381 35.911 41.3633 35.911 42.8291V50.9242ZM44.0314 40.686C43.3116 40.686 42.7476 40.9136 42.3395 41.3689C41.9313 41.8242 41.6975 42.4701 41.6382 43.3066H46.4024C46.3875 42.4701 46.1686 41.8242 45.7456 41.3689C45.3226 40.9136 44.7512 40.686 44.0314 40.686ZM44.51 51.1463C42.5064 51.1463 40.9406 50.5947 39.8127 49.4917C38.6847 48.3887 38.1207 46.8267 38.1207 44.8057C38.1207 42.7255 38.642 41.1172 39.6846 39.9809C40.7273 38.8445 42.1688 38.2763 44.0091 38.2763C45.7679 38.2763 47.137 38.776 48.1166 39.7754C49.0961 40.7748 49.5859 42.1554 49.5859 43.9173V45.5608H41.5603C41.5974 46.5232 41.8831 47.2745 42.4174 47.815C42.9517 48.3554 43.7012 48.6256 44.6659 48.6256C45.4154 48.6256 46.1241 48.5478 46.792 48.3924C47.4598 48.2369 48.1574 47.9889 48.8846 47.6484V50.269C48.291 50.5651 47.6565 50.7854 46.9812 50.9297C46.3059 51.0741 45.4822 51.1463 44.51 51.1463ZM55.281 50.9242H51.886V33.6458H55.281V50.9242ZM64.0334 48.4479C64.6271 48.4479 65.3395 48.3183 66.1706 48.0592V50.5799C65.3246 50.9575 64.2857 51.1462 63.0539 51.1462C61.6959 51.1462 60.707 50.8039 60.0874 50.1191C59.4677 49.4343 59.1579 48.4072 59.1579 47.0376V41.0524H57.5328V39.6199L59.4028 38.4873L60.3824 35.8666H62.553V38.5095H66.0371V41.0524H62.553V47.0376C62.553 47.5188 62.6884 47.8742 62.9593 48.1037C63.2301 48.3331 63.5882 48.4479 64.0334 48.4479ZM73.8845 40.686C73.1647 40.686 72.6007 40.9136 72.1926 41.3689C71.7844 41.8242 71.5507 42.4701 71.4913 43.3066H76.2555C76.2406 42.4701 76.0217 41.8242 75.5987 41.3689C75.1758 40.9136 74.6044 40.686 73.8845 40.686ZM74.3632 51.1463C72.3595 51.1463 70.7938 50.5947 69.6658 49.4917C68.5378 48.3887 67.9738 46.8267 67.9738 44.8057C67.9738 42.7255 68.4951 41.1172 69.5378 39.9809C70.5804 38.8445 72.0219 38.2763 73.8623 38.2763C75.621 38.2763 76.9902 38.776 77.9697 39.7754C78.9493 40.7748 79.4391 42.1554 79.4391 43.9173V45.5608H71.4134C71.4505 46.5232 71.7362 47.2745 72.2705 47.815C72.8048 48.3554 73.5543 48.6256 74.519 48.6256C75.2685 48.6256 75.9772 48.5478 76.6451 48.3924C77.313 48.2369 78.0106 47.9889 78.7378 47.6484V50.269C78.1441 50.5651 77.5097 50.7854 76.8344 50.9297C76.159 51.0741 75.3353 51.1463 74.3632 51.1463ZM88.6637 38.2763C89.1238 38.2763 89.5059 38.3096 89.8102 38.3763L89.5542 41.5521C89.2796 41.4781 88.9457 41.4411 88.5523 41.4411C87.4689 41.4411 86.6248 41.7187 86.02 42.2739C85.4152 42.8291 85.1128 43.6064 85.1128 44.6058V50.9242H81.7178V38.5095H84.2891L84.79 40.5971H84.9569C85.3428 39.9013 85.8641 39.3405 86.5209 38.9148C87.1776 38.4892 87.8919 38.2763 88.6637 38.2763Z" fill="#0026EB"/>
<path fill-rule="evenodd" clip-rule="evenodd" d="M60.0585 73.6014H56.6671V66.3502C56.6671 64.5587 55.9999 63.663 54.6656 63.663C53.7167 63.663 53.031 63.985 52.6085 64.6291C52.1859 65.2731 51.9747 66.3169 51.9747 67.7605V73.6014H48.5832V56.323H51.9747V59.8431C51.9747 60.117 51.9487 60.761 51.8968 61.7752L51.819 62.7746H51.9969C52.753 61.5606 53.9539 60.9535 55.5996 60.9535C57.06 60.9535 58.1682 61.3459 58.9244 62.1306C59.6805 62.9153 60.0585 64.0405 60.0585 65.5063V73.6014ZM42.059 73.8234C38.1894 73.8234 36.2546 71.7025 36.2546 67.4607C36.2546 65.3508 36.7809 63.7389 37.8336 62.6247C38.8862 61.5106 40.3947 60.9535 42.3592 60.9535C43.7973 60.9535 45.0871 61.2348 46.2287 61.7975L45.228 64.4181C44.6943 64.2034 44.1976 64.0276 43.738 63.8906C43.2784 63.7537 42.8188 63.6852 42.3592 63.6852C40.5949 63.6852 39.7127 64.9363 39.7127 67.4385C39.7127 69.8666 40.5949 71.0807 42.3592 71.0807C43.0115 71.0807 43.6157 70.9937 44.1716 70.8197C44.7276 70.6457 45.2836 70.3737 45.8396 70.0035V72.9018C45.291 73.2497 44.7369 73.4903 44.1772 73.6236C43.6175 73.7568 42.9114 73.8234 42.059 73.8234ZM24.4902 72.1689C25.617 73.2719 27.1811 73.8234 29.1826 73.8234C30.1537 73.8234 30.9765 73.7513 31.6511 73.6069C32.3257 73.4625 32.9595 73.2423 33.5526 72.9462V70.3256C32.8261 70.6661 32.1293 70.9141 31.4621 71.0696C30.7949 71.225 30.087 71.3028 29.3383 71.3028C28.3746 71.3028 27.6259 71.0326 27.0921 70.4921C26.5584 69.9517 26.273 69.2003 26.2359 68.238H34.2531V66.5945C34.2531 64.8326 33.7638 63.452 32.7853 62.4526C31.8068 61.4532 30.4391 60.9535 28.6822 60.9535C26.8438 60.9535 25.4038 61.5217 24.3623 62.658C23.3208 63.7944 22.8 65.4027 22.8 67.4829C22.8 69.5039 23.3634 71.0659 24.4902 72.1689ZM28.7044 63.3632C27.9854 63.3632 27.422 63.5908 27.0143 64.0461C26.6066 64.5014 26.3731 65.1473 26.3138 65.9838H31.0729C31.0581 65.1473 30.8394 64.5014 30.4168 64.0461C29.9943 63.5908 29.4235 63.3632 28.7044 63.3632ZM15.5472 73.6014H18.9943V60.2317H23.4087V57.3668H11.1328V60.2317H15.5472V73.6014Z" fill="#0026EB"/>
</svg>
