<svg id="type" xmlns="http://www.w3.org/2000/svg" viewBox="0 0 100 100"><defs><style>.cls-1{fill:#fff;}.cls-2{fill:#a29fa2;}</style></defs><title>DigitalRGB_Silver_100px</title><circle class="cls-1" cx="50" cy="50" r="50"/><path class="cls-2" d="M53.22,61.65,49,78.63a.45.45,0,0,1-.51.25.43.43,0,0,1-.33-.46L47.22,61l-8.81,5.4a.44.44,0,0,1-.51-.68L42.2,59,21.41,61.16a.42.42,0,0,1-.48-.33.43.43,0,0,1,.28-.51L37,53.82,22.16,51.39a.43.43,0,0,1-.33-.49.44.44,0,0,1,.46-.37L41.7,49.36,31.76,30.09a.45.45,0,0,1,.11-.57.43.43,0,0,1,.58.06L48.25,45l4.13-26.4a.44.44,0,0,1,.45-.38.44.44,0,0,1,.41.43l.89,26.54,5.44-5.79a.43.43,0,0,1,.74.4L60.2,46l16.1-7.36a.43.43,0,0,1,.46.72l-16.28,13,11.39,6.25a.43.43,0,0,1-.26.81l-11.8-.29L72,77.24a34.4,34.4,0,1,0-2.46,1.84Z" transform="translate(0 0)"/><path d="M39.21,94.29l.11-.56,2.73-2.25a1.16,1.16,0,0,0,.45-.71.8.8,0,0,0-.7-1,.88.88,0,0,0-1.12.79L40,90.37a1.52,1.52,0,0,1,1.91-1.25A1.57,1.57,0,0,1,43.1,90a1.39,1.39,0,0,1,.08.89,1.81,1.81,0,0,1-.69,1l-2.29,1.9,2.37.48-.13.62Z" transform="translate(0 0)"/><path d="M47.64,95.13A1.73,1.73,0,0,1,45.27,95a3.16,3.16,0,0,1-.47-2.43,3.23,3.23,0,0,1,.83-2.35,1.78,1.78,0,0,1,2.38.18,3.26,3.26,0,0,1,.46,2.45A3.15,3.15,0,0,1,47.64,95.13Zm-.17-4.41a1.05,1.05,0,0,0-1.36-.1,4.62,4.62,0,0,0-.3,4,.93.93,0,0,0,.66.3,1,1,0,0,0,.7-.2,2.77,2.77,0,0,0,.6-2A2.79,2.79,0,0,0,47.47,90.72Z" transform="translate(0 0)"/><path d="M50.59,95.57l0-.57,2.09-2.85a1.21,1.21,0,0,0,.27-.8.82.82,0,0,0-1-.85.88.88,0,0,0-.88,1l-.7,0a1.53,1.53,0,0,1,1.55-1.68,1.58,1.58,0,0,1,1.37.56,1.38,1.38,0,0,1,.29.85,1.78,1.78,0,0,1-.41,1.19l-1.75,2.4,2.42-.11,0,.63Z" transform="translate(0 0)"/><path d="M58.75,94.35a1.58,1.58,0,0,1-1.09.66,1.6,1.6,0,0,1-1.25-.26,3.17,3.17,0,0,1-1-2.25A3.13,3.13,0,0,1,55.61,90a1.57,1.57,0,0,1,1.09-.65,1.54,1.54,0,0,1,1.24.25,4.71,4.71,0,0,1,.81,4.72Zm-1.24-4.23a1,1,0,0,0-1.34.23,2.78,2.78,0,0,0-.11,2c.13.73.25,1.53.78,1.88a.92.92,0,0,0,.71.14,1,1,0,0,0,.63-.36,2.71,2.71,0,0,0,.11-2C58.17,91.27,58.05,90.48,57.51,90.12Z" transform="translate(0 0)"/><path d="M17.74,73.42l-.46.51a1.82,1.82,0,0,1,1.57.71,2.13,2.13,0,0,1,.48,1.55,3,3,0,0,1-1.38,2,3,3,0,0,1-2.27.86,2.15,2.15,0,0,1-1.41-.81,2.13,2.13,0,0,1-.5-1.65,1.69,1.69,0,0,1,.55-1.06l.46.57a1.14,1.14,0,0,0-.33.59,1.41,1.41,0,0,0,.34,1.14,1.38,1.38,0,0,0,1,.53,2.62,2.62,0,0,0,1.74-.74,2.66,2.66,0,0,0,1.13-1.54,1.37,1.37,0,0,0-.31-1,1.46,1.46,0,0,0-.93-.56A2,2,0,0,0,16,75l.93,1.18-.52.41-1.32-1.68L17.43,73Z" transform="translate(0 0)"/><path d="M15.45,69.62a1.93,1.93,0,0,1-.87,2.85l-3.1,1.76-.35-.61,3.11-1.77a1.35,1.35,0,1,0-1.33-2.34L9.8,71.27l-.35-.61,3.1-1.76A1.93,1.93,0,0,1,15.45,69.62Z" transform="translate(0 0)"/><path d="M13.49,66l-5.18,2.2L8,67.49l5.18-2.21Z" transform="translate(0 0)"/><path d="M10.84,60.06a2.12,2.12,0,0,1,1,1.25l.55,1.88L7,64.79l-.56-1.88a2,2,0,0,1,.13-1.57A2.91,2.91,0,0,1,8.47,60,3,3,0,0,1,10.84,60.06Zm-3.72,1.6A1.42,1.42,0,0,0,7,62.73l.36,1.2,4.14-1.23-.36-1.2a1.42,1.42,0,0,0-.65-.85,2.49,2.49,0,0,0-1.84,0A2.46,2.46,0,0,0,7.12,61.66Z" transform="translate(0 0)"/><path d="M10.84,57.49l-5.57.82-.55-3.73.64-.09.45,3,1.7-.25-.39-2.65.65-.1.4,2.66,1.92-.29-.45-3,.65-.09Z" transform="translate(0 0)"/><path d="M9.69,48.69a2.32,2.32,0,0,1,.59,1.58,2.35,2.35,0,0,1-.52,1.62,1.88,1.88,0,0,1-1.34.62v-.74a1.27,1.27,0,0,0,.88-.4,1.6,1.6,0,0,0,.33-1.09,1.41,1.41,0,0,0-.34-1A.85.85,0,0,0,8.62,49c-.44,0-.8.3-.89,1,0,.31-.08.59-.12.89-.11.84-.57,1.51-1.47,1.52A1.5,1.5,0,0,1,5,51.86,2.24,2.24,0,0,1,5,48.93a1.68,1.68,0,0,1,1.2-.56v.74a1.16,1.16,0,0,0-.7.28,1.28,1.28,0,0,0-.37,1,1.23,1.23,0,0,0,.4,1,.87.87,0,0,0,.62.22c.5,0,.73-.43.78-.85s.08-.63.12-.94a1.61,1.61,0,0,1,1.57-1.58A1.45,1.45,0,0,1,9.69,48.69Z" transform="translate(0 0)"/><path d="M5.55,44.37l4.94.58-.09.71-4.93-.59-.2,1.67-.65-.08.48-4,.65.07Z" transform="translate(0 0)"/><path d="M11.6,39.26l-1.41.14-.55,2.38,1.19.74-.16.7L5.64,40l.19-.81,5.93-.65Zm-5.18.52L9,41.41l.45-1.94Z" transform="translate(0 0)"/><path d="M13.46,34.07l-2.57.13-.57,1.44,2.18.86-.26.66L7,35.09,7.82,33a1.88,1.88,0,0,1,1-1.14,1.52,1.52,0,0,1,1.22,0,1.52,1.52,0,0,1,.88.8,1.61,1.61,0,0,1,.12.77l2.71-.14Zm-5-.79-.56,1.4,1.84.72L10.26,34c.25-.62.17-1.16-.49-1.43S8.67,32.66,8.43,33.28Z" transform="translate(0 0)"/><path d="M17.18,26.56a2.28,2.28,0,0,1-.4,1.64,2.32,2.32,0,0,1-1.33,1.05A1.88,1.88,0,0,1,14,29l.4-.61a1.3,1.3,0,0,0,1,.15,1.63,1.63,0,0,0,.88-.71,1.5,1.5,0,0,0,.3-1.05.83.83,0,0,0-.39-.6.92.92,0,0,0-1.27.29l-.6.67a1.53,1.53,0,0,1-2.07.44,1.58,1.58,0,0,1-.66-1,2.24,2.24,0,0,1,1.6-2.46,1.67,1.67,0,0,1,1.3.21l-.41.61a1.24,1.24,0,0,0-.74-.15,1.27,1.27,0,0,0-.87.61,1.31,1.31,0,0,0-.22,1.05.88.88,0,0,0,.39.53.83.83,0,0,0,1.12-.27l.63-.7a1.62,1.62,0,0,1,2.19-.44A1.47,1.47,0,0,1,17.18,26.56Z" transform="translate(0 0)"/><path d="M19.07,24.89,14.73,21.3l.46-.56,4.35,3.6Z" transform="translate(0 0)"/><path d="M21.12,22.53l-3.95-4,.5-.49,3.49,3.55,1.93-1.9.47.47Z" transform="translate(0 0)"/><path d="M25.6,18.51,25,19l-5-3.24.57-.45L24.79,18,23,13.37l.56-.45Z" transform="translate(0 0)"/><path d="M28,16.74l-2.89-4.82L28.33,10l.33.55L26,12.12l.89,1.47,2.3-1.39.34.58-2.3,1.38,1,1.66,2.62-1.57.34.56Z" transform="translate(0 0)"/><path d="M36,12.65,34.16,10.9l-1.44.6.9,2.16-.65.27L30.8,8.74l2-.85a1.88,1.88,0,0,1,1.51-.09,1.6,1.6,0,0,1,.85.88,1.5,1.5,0,0,1,0,1.19,1.47,1.47,0,0,1-.47.63l2,1.85ZM33.09,8.49l-1.39.58.77,1.82,1.38-.58c.62-.25.95-.69.68-1.34S33.71,8.23,33.09,8.49Z" transform="translate(0 0)"/><path d="M44.06,10.11a2.62,2.62,0,0,1-3.15.62,1.88,1.88,0,0,1-.85-1.21l.73-.14a1.25,1.25,0,0,0,.56.8,1.52,1.52,0,0,0,1.12.14,1.48,1.48,0,0,0,1-.51.83.83,0,0,0,.16-.7c-.08-.43-.42-.74-1.1-.72l-.9,0a1.53,1.53,0,0,1-1.75-1.19,1.51,1.51,0,0,1,.28-1.18,2,2,0,0,1,1.34-.82A2.09,2.09,0,0,1,43,5.49a1.71,1.71,0,0,1,.76,1.09L43,6.72a1.21,1.21,0,0,0-.4-.65,1.25,1.25,0,0,0-1-.19,1.27,1.27,0,0,0-.91.56,1,1,0,0,0-.12.65.84.84,0,0,0,1,.62l1,0A1.61,1.61,0,0,1,44.32,9,1.46,1.46,0,0,1,44.06,10.11Z" transform="translate(0 0)"/><path d="M46.2,10.31l-.3-5.62,3.76-.2,0,.65-3,.16L46.73,7l2.68-.14,0,.67-2.68.14.1,1.94,3.05-.16,0,.65Z" transform="translate(0 0)"/><path d="M55,10.45l-.35-1.37-2.43-.2-.56,1.29L51,10.11l2.44-5.44.82.07,1.52,5.77Zm-1.28-5L52.54,8.23l2,.17Z" transform="translate(0 0)"/><path d="M57,10.76l1.18-5.5.69.15-1,4.85,2.64.57-.13.64Z" transform="translate(0 0)"/><path d="M66.47,13.15a2.14,2.14,0,0,1-1.63,0A2.18,2.18,0,0,1,63.66,12a3,3,0,0,1,.2-2.41,3,3,0,0,1,1.53-1.88A2.21,2.21,0,0,1,68.2,8.86a3,3,0,0,1-.2,2.42A3,3,0,0,1,66.47,13.15Zm1.09-4a1.39,1.39,0,0,0-.79-.77,1.43,1.43,0,0,0-1.11,0,2.54,2.54,0,0,0-1.12,1.51,2.58,2.58,0,0,0-.24,1.87,1.45,1.45,0,0,0,1.9.76A2.6,2.6,0,0,0,67.33,11,2.58,2.58,0,0,0,67.56,9.13Z" transform="translate(0 0)"/><path d="M71.47,10.65l-.91,1.59,2.28,1.3-.33.58-2.28-1.3L69,15l-.61-.35,2.79-4.9,3.17,1.81-.33.57Z" transform="translate(0 0)"/><path d="M78.92,15.79,75.74,19.6l-.54-.45,3.17-3.82-1.29-1.07.42-.5,3.12,2.59-.42.51Z" transform="translate(0 0)"/><path d="M80.4,24.23l1-2.36-1-1.15L78.64,22.3l-.48-.52L82.31,18l1.48,1.62a1.91,1.91,0,0,1,.6,1.39,1.58,1.58,0,0,1-.55,1.1,1.48,1.48,0,0,1-1.1.43A1.59,1.59,0,0,1,82,22.3l-1.06,2.5Zm2.91-4.18-1-1.1-1.45,1.33,1,1.1c.45.49,1,.66,1.49.18S83.76,20.54,83.31,20.05Z" transform="translate(0 0)"/><path d="M83.9,29l.84-1.13-1.37-2L82,26.24l-.4-.59,5.76-1.53.46.68-3.52,4.81ZM87,24.84l-3,.83,1.12,1.64Z" transform="translate(0 0)"/><path d="M86.47,33.93l2.88-4.45-4.07,2-.3-.62,5.07-2.43.34.71L87.5,33.55l4.09-2,.29.61-5.06,2.44Z" transform="translate(0 0)"/><path d="M89,39.77a2.61,2.61,0,0,1-1-3.06,1.9,1.9,0,0,1,1.12-1l.21.7a1.28,1.28,0,0,0-.73.64,1.65,1.65,0,0,0,0,1.14,1.49,1.49,0,0,0,.62.9.84.84,0,0,0,.72.08c.41-.13.68-.5.58-1.17,0-.31-.09-.58-.13-.88a1.53,1.53,0,0,1,1-1.88,1.55,1.55,0,0,1,1.21.15,2.06,2.06,0,0,1,1,1.24,2.14,2.14,0,0,1-.08,1.56,1.72,1.72,0,0,1-1,.87l-.21-.71a1.17,1.17,0,0,0,.59-.47A1.27,1.27,0,0,0,93,36.85a1.26,1.26,0,0,0-.67-.84.85.85,0,0,0-.65,0,.83.83,0,0,0-.51,1c.06.32.1.63.14.94a1.6,1.6,0,0,1-1.06,2A1.48,1.48,0,0,1,89,39.77Z" transform="translate(0 0)"/><path d="M92.28,45.43a1.9,1.9,0,0,1-.67-1.3l-.21-1.37-2.16.32-.1-.7,5.57-.83L95,43.61a1.93,1.93,0,0,1-.29,1.49,1.71,1.71,0,0,1-1.12.6A1.75,1.75,0,0,1,92.28,45.43Zm2.1-1.74-.2-1.35L92,42.66l.2,1.36a1,1,0,0,0,1.26,1A1,1,0,0,0,94.38,43.69Z" transform="translate(0 0)"/><path d="M89.85,51l1.32-.48,0-2.44-1.34-.43V47l5.65,1.89v.82l-5.59,2.08Zm4.89-1.76-2.93-.95,0,2Z" transform="translate(0 0)"/><path d="M89.3,56.68l2.46-.75.2-1.54-2.32-.31.09-.7,5.58.73L95,56.3a1.92,1.92,0,0,1-.68,1.35,1.62,1.62,0,0,1-1.19.3,1.56,1.56,0,0,1-1-.57,1.63,1.63,0,0,1-.31-.72l-2.6.79Zm5.08-.46.2-1.49-2-.26L92.42,56c-.08.66.12,1.17.83,1.26S94.3,56.88,94.38,56.22Z" transform="translate(0 0)"/><path d="M88.75,59.4,94.16,61l-1,3.62-.62-.18.84-2.94L91.69,61,91,63.56l-.64-.19.74-2.57-1.87-.54-.84,2.94L87.72,63Z" transform="translate(0 0)"/><path d="M85.63,67.87l5.26-.62-4.1-1.89.28-.62,5.11,2.35-.33.72-5.28.61,4.12,1.9-.28.62L85.3,68.59Z" transform="translate(0 0)"/><path d="M82.84,73.46a2.2,2.2,0,0,1,1.66-2.53,3,3,0,0,1,2.32.67,3,3,0,0,1,1.55,1.86A2.23,2.23,0,0,1,86.73,76a1.88,1.88,0,0,1-1.37-.24l.4-.61a1.22,1.22,0,0,0,.82.17,1.33,1.33,0,0,0,.9-.62,1.4,1.4,0,0,0,.2-1.09,2.55,2.55,0,0,0-1.26-1.4,2.6,2.6,0,0,0-1.78-.6,1.45,1.45,0,0,0-.92.62,1.34,1.34,0,0,0-.2,1.09,1.24,1.24,0,0,0,.5.7l-.4.61A2,2,0,0,1,82.84,73.46Z" transform="translate(0 0)"/><path d="M81.86,77.55l-1.74-1.48.46-.55L82.32,77l3.77.73-.51.61-3-.61,1.09,2.85-.49.57Z" transform="translate(0 0)"/></svg>