<svg width="36" height="36" viewBox="0 0 36 36" fill="none" xmlns="http://www.w3.org/2000/svg">
<path d="M25.2754 0H10.7246C4.81103 0 0 4.81103 0 10.7246V25.2754C0 31.189 4.81103 36 10.7246 36H25.2754C31.189 36 36 31.189 36 25.2754V10.7246C35.9999 4.81103 31.1889 0 25.2754 0ZM32.3784 25.2754C32.3784 29.1982 29.1982 32.3784 25.2754 32.3784H10.7246C6.80175 32.3784 3.6216 29.1982 3.6216 25.2754V10.7246C3.6216 6.80169 6.80175 3.6216 10.7246 3.6216H25.2754C29.1982 3.6216 32.3784 6.80169 32.3784 10.7246V25.2754Z" fill="white"/>
<path d="M18.0001 8.68912C12.8661 8.68912 8.68921 12.866 8.68921 17.9999C8.68921 23.1339 12.8661 27.3108 18.0001 27.3108C23.1341 27.3108 27.311 23.134 27.311 17.9999C27.311 12.8659 23.1341 8.68912 18.0001 8.68912ZM18.0001 23.6893C14.858 23.6893 12.3108 21.1421 12.3108 18C12.3108 14.8579 14.858 12.3107 18.0001 12.3107C21.1422 12.3107 23.6894 14.8579 23.6894 18C23.6894 21.1421 21.1422 23.6893 18.0001 23.6893Z" fill="white"/>
<path d="M27.329 10.9901C28.5612 10.9901 29.5601 9.99125 29.5601 8.75906C29.5601 7.52687 28.5612 6.52798 27.329 6.52798C26.0968 6.52798 25.0979 7.52687 25.0979 8.75906C25.0979 9.99125 26.0968 10.9901 27.329 10.9901Z" fill="white"/>
</svg>
