<svg width="36" height="36" viewBox="0 0 36 36" fill="none" xmlns="http://www.w3.org/2000/svg">
<path d="M11.8661 31.5C24.3187 31.5 31.1327 21.1093 31.1327 12.1137C31.1327 11.8214 31.1327 11.529 31.1194 11.2367C32.44 10.28 33.5888 9.07087 34.5 7.70226C33.2851 8.24705 31.9778 8.60581 30.6044 8.77854C32.0042 7.94144 33.0738 6.59941 33.5888 5.00492C32.2815 5.78888 30.8289 6.34695 29.2839 6.65256C28.0426 5.32382 26.2863 4.5 24.3451 4.5C20.608 4.5 17.5708 7.5561 17.5708 11.3164C17.5708 11.8479 17.6369 12.3661 17.7425 12.8711C12.117 12.592 7.12545 9.86811 3.78451 5.74902C3.20348 6.75886 2.87335 7.92815 2.87335 9.17717C2.87335 11.5423 4.07503 13.6284 5.88415 14.8509C4.77491 14.811 3.73169 14.5054 2.82053 14.0005C2.82053 14.0271 2.82053 14.0536 2.82053 14.0935C2.82053 17.3888 5.15786 20.1526 8.2479 20.7771C7.68007 20.9365 7.08583 21.0162 6.46519 21.0162C6.02941 21.0162 5.60684 20.9764 5.19748 20.8967C6.05582 23.6073 8.56483 25.5738 11.5228 25.627C9.19868 27.4606 6.28031 28.5502 3.11105 28.5502C2.56963 28.5502 2.02821 28.5236 1.5 28.4572C4.48439 30.3706 8.04982 31.5 11.8661 31.5Z" fill="white"/>
</svg>
